<?xml version="1.0" encoding="UTF-8" standalone="no"?>
<!-- Created with Inkscape (http://www.inkscape.org/) -->

<svg
   xmlns:dc="http://purl.org/dc/elements/1.1/"
   xmlns:cc="http://creativecommons.org/ns#"
   xmlns:rdf="http://www.w3.org/1999/02/22-rdf-syntax-ns#"
   xmlns:svg="http://www.w3.org/2000/svg"
   xmlns="http://www.w3.org/2000/svg"
   xmlns:sodipodi="http://sodipodi.sourceforge.net/DTD/sodipodi-0.dtd"
   xmlns:inkscape="http://www.inkscape.org/namespaces/inkscape"
   width="57"
   height="57"
   id="svg2"
   version="1.1"
   inkscape:version="0.48.2 r9819"
   sodipodi:docname="icon-57.svg"
   inkscape:export-filename="/home/tauno/api/lion/images/icon-57.png"
   inkscape:export-xdpi="90"
   inkscape:export-ydpi="90">
  <defs
     id="defs4" />
  <sodipodi:namedview
     id="base"
     pagecolor="#ffffff"
     bordercolor="#666666"
     borderopacity="1.0"
     inkscape:pageopacity="0.0"
     inkscape:pageshadow="2"
     inkscape:zoom="1.979899"
     inkscape:cx="108.06246"
     inkscape:cy="63.434438"
     inkscape:document-units="px"
     inkscape:current-layer="layer1"
     showgrid="false"
     inkscape:window-width="1280"
     inkscape:window-height="776"
     inkscape:window-x="0"
     inkscape:window-y="24"
     inkscape:window-maximized="1"
     showguides="true"
     inkscape:guide-bbox="true" />
  <metadata
     id="metadata7">
    <rdf:RDF>
      <cc:Work
         rdf:about="">
        <dc:format>image/svg+xml</dc:format>
        <dc:type
           rdf:resource="http://purl.org/dc/dcmitype/StillImage" />
        <dc:title></dc:title>
      </cc:Work>
    </rdf:RDF>
  </metadata>
  <g
     inkscape:label="Layer 1"
     inkscape:groupmode="layer"
     id="layer1"
     transform="translate(0,-995.36218)">
    <path
       style="fill:#fdbb2f;fill-opacity:1"
       d="m 0,995.3622 0,57 57,0 0,-57 -57,0 z m 36.506385,4.13966 c 0.300037,0 0.372187,0.76754 0.181963,2.13804 -1.76909,12.7464 -1.647572,13.1924 3.707502,13.1924 3.832131,0 8.165602,1.0113 8.165602,1.9334 0,0.3198 -0.910001,1.2468 -2.024341,2.047 -2.890091,2.0755 -2.732899,3.0733 0.773344,5.7774 4.4582,3.4382 4.65136,3.6495 4.389865,3.9122 -0.13706,0.1378 -3.799786,0.078 -8.120113,-0.1137 -4.320376,-0.1917 -7.929294,-0.2994 -8.006384,-0.2502 -0.298376,0.1901 -1.350907,8.2648 -1.63767,12.4417 -0.202064,2.9434 -0.502523,4.3899 -0.864326,4.3899 -0.296806,0 -1.431063,-0.8873 -2.52474,-2.0016 -1.093589,-1.1144 -2.363488,-2.0471 -2.843177,-2.0471 -0.484907,0 -2.375617,1.5113 -4.253391,3.389 -1.857241,1.8573 -3.56404,3.3891 -3.775739,3.3891 -0.211657,0 -0.382167,-3.8182 -0.386671,-8.4612 -0.0051,-4.6432 -0.113639,-8.8629 -0.2502,-9.3712 -0.231292,-0.8609 -0.620937,-0.9117 -5.731843,-1.0008 -7.1528855,-0.1246 -10.2126901,-0.4882 -10.2126901,-1.2055 0,-0.3113 0.9908876,-1.8401 2.2290501,-3.389 1.238162,-1.5491 2.2745415,-3.075 2.2745415,-3.3664 0,-0.8682 -2.535323,-4.5787 -3.6620114,-5.3679 -0.9767527,-0.6842 -0.998474,-0.7756 -0.2956903,-1.4785 0.8810829,-0.881 2.5635287,-0.9322 12.1460492,-0.3866 5.530665,0.3148 6.680918,0.2774 6.869114,-0.2502 0.124047,-0.3479 0.617867,-3.4427 1.114526,-6.8919 0.496616,-3.4492 1.105334,-6.4505 1.341979,-6.68716 0.273522,-0.27349 1.104785,0.14259 2.320032,1.18276 1.051408,0.8999 2.176199,1.6377 2.47925,1.6377 0.303063,0 1.810183,-0.7255 3.343575,-1.5922 1.533428,-0.8668 2.9951,-1.56944 3.252594,-1.56944 z m -8.984438,16.37674 c -0.116322,0 -0.222836,0.017 -0.341181,0.023 -1.47274,0.084 -3.081856,0.8279 -4.7083,2.2974 -0.949783,0.8579 -1.864195,2.114 -2.024341,2.7521 -0.568202,2.2639 1.336127,5.9765 3.571029,6.9601 0.495266,0.218 1.763764,0.299 2.820431,0.1819 5.272545,-0.5841 7.312756,-4.3758 4.935754,-9.1436 -0.998651,-2.0031 -2.508544,-3.0391 -4.253392,-3.0706 z"
       id="path3004"
       inkscape:connector-curvature="0" />
  </g>
</svg>
