<?xml version="1.0" encoding="UTF-8" standalone="no"?>
<!-- Created with Inkscape (http://www.inkscape.org/) -->

<svg
   xmlns:dc="http://purl.org/dc/elements/1.1/"
   xmlns:cc="http://creativecommons.org/ns#"
   xmlns:rdf="http://www.w3.org/1999/02/22-rdf-syntax-ns#"
   xmlns:svg="http://www.w3.org/2000/svg"
   xmlns="http://www.w3.org/2000/svg"
   xmlns:sodipodi="http://sodipodi.sourceforge.net/DTD/sodipodi-0.dtd"
   xmlns:inkscape="http://www.inkscape.org/namespaces/inkscape"
   width="16"
   height="16"
   id="svg2"
   version="1.1"
   inkscape:version="0.48.2 r9819"
   sodipodi:docname="icon-16.svg"
   inkscape:export-filename="/home/tauno/api/lion/images/favicon.png"
   inkscape:export-xdpi="90"
   inkscape:export-ydpi="90">
  <defs
     id="defs4" />
  <sodipodi:namedview
     id="base"
     pagecolor="#ffffff"
     bordercolor="#666666"
     borderopacity="1.0"
     inkscape:pageopacity="0.0"
     inkscape:pageshadow="2"
     inkscape:zoom="2.8"
     inkscape:cx="104.61055"
     inkscape:cy="1.8758125"
     inkscape:document-units="px"
     inkscape:current-layer="layer1"
     showgrid="false"
     inkscape:window-width="1280"
     inkscape:window-height="776"
     inkscape:window-x="0"
     inkscape:window-y="24"
     inkscape:window-maximized="1"
     showguides="true"
     inkscape:guide-bbox="true" />
  <metadata
     id="metadata7">
    <rdf:RDF>
      <cc:Work
         rdf:about="">
        <dc:format>image/svg+xml</dc:format>
        <dc:type
           rdf:resource="http://purl.org/dc/dcmitype/StillImage" />
        <dc:title></dc:title>
      </cc:Work>
    </rdf:RDF>
  </metadata>
  <g
     inkscape:label="Layer 1"
     inkscape:groupmode="layer"
     id="layer1"
     transform="translate(0,-1036.3622)">
    <rect
       style="fill:#00000f;fill-opacity:1;fill-rule:nonzero;stroke:none"
       id="rect2985"
       width="15.625797"
       height="15.562663"
       x="0.18940398"
       y="1036.547" />
    <path
       style="fill:#fdbb2f;fill-opacity:1"
       d="m 0,1036.3622 0,16 16,0 0,-16 z m 10.393188,2.1726 c -0.4965872,3.5779 -0.5571787,3.2927 0.946,3.2927 1.075686,0 3.712626,0.094 3.712626,0.3533 -0.920975,0.5272 -1.514367,0.9276 -2.553461,1.4054 1.021475,1.0891 1.680719,1.3646 2.613798,2.1732 -0.03847,0.039 -1.571683,0.085 -2.784406,0.031 -1.212738,-0.054 -2.225767,0.042 -2.247407,0.056 -0.3380236,1.5218 0.09182,4.4818 -0.2603726,5.8927 -0.5352434,-0.3724 -1.8452145,-2.0709 -2.3906672,-2.4308 -0.8843842,0.5492 -1.5690161,1.745 -2.3800599,2.4393 -0.1690378,-1.7307 0.3810802,-3.8484 0.2947377,-5.7 -0.064924,-0.2417 -0.1742981,-0.256 -1.6089384,-0.281 -2.0078275,-0.035 -3.08769093,0.2102 -3.08769093,0.01 0.70376803,-1.1852 0.95107233,-1.8056 1.30149223,-2.3786 -0.3411909,-0.727 -0.5655381,-1.0676 -1.17982744,-2.0076 1.69941584,0.1 0.97212514,-0.041 3.66195544,0.1125 1.5524674,0.088 1.8753454,0.078 1.9281724,-0.07 0.1369791,-1.7812 -0.1105412,-2.855 0.089767,-4.3482 0.578311,0.4111 1.3512839,0.9487 1.946945,1.3283 0.8113679,-0.6664 1.3462142,-0.7853 2.1672287,-1.361 -0.09759,0.9558 -0.160625,1.0735 -0.169892,1.4836 z m -2.7634992,3.5964 c -0.4083955,-0.069 -0.8334885,0.1693 -1.2900608,0.5818 -1.2838067,1.1549 0.2968171,2.8547 1.1942907,2.8404 1.4878842,-0.059 2.0685502,-1.2363 1.3854748,-2.5666 -0.3122042,-0.608 -0.7970953,-0.773 -1.2897047,-0.8556 z"
       id="path3004"
       inkscape:connector-curvature="0"
       sodipodi:nodetypes="ccccccscccscccccsccccccccccsccss" />
  </g>
</svg>
