<?xml version="1.0" encoding="UTF-8" standalone="no"?>
<!-- Created with Inkscape (http://www.inkscape.org/) -->

<svg
   xmlns:dc="http://purl.org/dc/elements/1.1/"
   xmlns:cc="http://creativecommons.org/ns#"
   xmlns:rdf="http://www.w3.org/1999/02/22-rdf-syntax-ns#"
   xmlns:svg="http://www.w3.org/2000/svg"
   xmlns="http://www.w3.org/2000/svg"
   xmlns:sodipodi="http://sodipodi.sourceforge.net/DTD/sodipodi-0.dtd"
   xmlns:inkscape="http://www.inkscape.org/namespaces/inkscape"
   width="72"
   height="72"
   id="svg2"
   version="1.1"
   inkscape:version="0.48.2 r9819"
   sodipodi:docname="icon-72.svg"
   inkscape:export-filename="/home/tauno/api/lion/images/icon-72.png"
   inkscape:export-xdpi="90"
   inkscape:export-ydpi="90">
  <defs
     id="defs4" />
  <sodipodi:namedview
     id="base"
     pagecolor="#ffffff"
     bordercolor="#666666"
     borderopacity="1.0"
     inkscape:pageopacity="0.0"
     inkscape:pageshadow="2"
     inkscape:zoom="1.979899"
     inkscape:cx="116.90129"
     inkscape:cy="63.434438"
     inkscape:document-units="px"
     inkscape:current-layer="layer1"
     showgrid="false"
     inkscape:window-width="1280"
     inkscape:window-height="776"
     inkscape:window-x="0"
     inkscape:window-y="24"
     inkscape:window-maximized="1"
     showguides="true"
     inkscape:guide-bbox="true" />
  <metadata
     id="metadata7">
    <rdf:RDF>
      <cc:Work
         rdf:about="">
        <dc:format>image/svg+xml</dc:format>
        <dc:type
           rdf:resource="http://purl.org/dc/dcmitype/StillImage" />
        <dc:title></dc:title>
      </cc:Work>
    </rdf:RDF>
  </metadata>
  <g
     inkscape:label="Layer 1"
     inkscape:groupmode="layer"
     id="layer1"
     transform="translate(0,-980.36218)">
    <path
       style="fill:#fdbb2f;fill-opacity:1"
       d="m 0,980.3622 0,72 72,0 0,-72 -72,0 z m 46.113328,5.22905 c 0.378995,0 0.470132,0.96947 0.229848,2.70072 -2.23464,16.10073 -2.081143,16.66403 4.683161,16.66403 4.840587,0 10.314445,1.2775 10.314445,2.4422 0,0.4039 -1.149475,1.5749 -2.557063,2.5857 -3.650641,2.6217 -3.452083,3.882 0.976856,7.2977 5.63141,4.343 5.875402,4.6099 5.545092,4.9418 -0.173128,0.174 -4.799729,0.099 -10.256984,-0.1437 -5.457317,-0.2421 -10.015951,-0.3781 -10.113328,-0.316 -0.376896,0.2402 -1.706408,10.4398 -2.068635,15.7158 -0.255239,3.718 -0.634766,5.5452 -1.09178,5.5452 -0.374913,0 -1.807659,-1.1208 -3.189146,-2.5284 -1.381375,-1.4076 -2.985458,-2.5858 -3.591381,-2.5858 -0.612514,0 -3.00078,1.909 -5.372705,4.2809 -2.345989,2.346 -4.501945,4.281 -4.769354,4.281 -0.267357,0 -0.482738,-4.823 -0.488427,-10.6879 -0.0064,-5.8651 -0.143544,-11.1952 -0.316042,-11.8373 -0.292158,-1.0874 -0.784341,-1.1516 -7.240223,-1.2642 -9.0352235,-0.1574 -12.9002398,-0.6166 -12.9002398,-1.5227 0,-0.3932 1.2516475,-2.3243 2.8156422,-4.2809 1.5639941,-1.9567 2.8731051,-3.8842 2.8731051,-4.2522 0,-1.0967 -3.2025133,-5.7837 -4.6256986,-6.7805 -1.2337929,-0.8643 -1.2612304,-0.9798 -0.3735036,-1.8676 1.1129469,-1.1129 3.2381415,-1.1775 15.3423777,-0.4884 6.986103,0.3977 8.439055,0.3504 8.676776,-0.316 0.156691,-0.4394 0.780463,-4.34873 1.407822,-8.70555 0.627305,-4.35683 1.396211,-8.14804 1.695132,-8.44694 0.345501,-0.34546 1.395518,0.18011 2.930566,1.49402 1.328094,1.13673 2.748883,2.06864 3.131684,2.06864 0.382817,0 2.286547,-0.91642 4.223464,-2.01118 1.936961,-1.09486 3.783284,-1.98244 4.108539,-1.98244 z m -11.348763,20.68635 c -0.146934,0 -0.281477,0.022 -0.430966,0.029 -1.860303,0.1063 -3.89287,1.0457 -5.947326,2.9019 -1.199726,1.0837 -2.354773,2.6704 -2.557063,3.4764 -0.717728,2.8597 1.68774,7.5493 4.510774,8.7917 0.625599,0.2754 2.227912,0.3777 3.56265,0.2298 6.660057,-0.7378 9.237165,-5.5273 6.234636,-11.5499 -1.261454,-2.5302 -3.168687,-3.8388 -5.372705,-3.8786 z"
       id="path3004"
       inkscape:connector-curvature="0" />
  </g>
</svg>
